<svg width="40" height="40" viewBox="0 0 40 40" fill="none" xmlns="http://www.w3.org/2000/svg">
<rect width="40" height="40" rx="10" fill="#FFF1EA"/>
<path d="M21 10.05V12.07C24.95 12.56 28 15.92 28 20C28 23.21 26.08 26 23.28 27.28L21 25V30H26L24.78 28.78C27.91 27.07 30 23.76 30 20C30 14.82 26.05 10.55 21 10.05ZM19 10C17.05 10.2 15.2 10.96 13.68 12.21L15.1 13.63C16.2351 12.755 17.5798 12.193 19 12V10ZM12.2 13.68C10.96 15.2 10.2 17.05 10 19H12C12.19 17.58 12.75 16.23 13.63 15.1L12.2 13.68ZM14 16V18H17V19H16C14.9 19 14 19.9 14 21V24H19V22H16V21H17C18.11 21 19 20.11 19 19V18C19 17.4696 18.7893 16.9609 18.4142 16.5858C18.0391 16.2107 17.5304 16 17 16H14ZM20 16V21H23V24H25V21H26V19H25V16H23V19H22V16H20ZM10 21C10.2 22.95 10.97 24.8 12.22 26.32L13.64 24.9C12.762 23.7656 12.1966 22.4209 12 21H10ZM15.11 26.37L13.68 27.79C15.1994 29.0305 17.0489 29.7988 19 30V28C17.5817 27.8114 16.2391 27.2489 15.11 26.37Z" fill="#F38B57"/>
</svg>
