<svg width="32" height="32" viewBox="0 0 32 32" fill="none" xmlns="http://www.w3.org/2000/svg">
<path d="M27.9332 5.50668C27.5438 4.94392 27.056 4.4561 26.4932 4.06668C25.0485 3.08947 23.3295 2.599 21.5866 2.66668H10.4132C10.1505 2.66636 9.88792 2.67972 9.62657 2.70668C5.25324 2.98668 2.66657 5.82668 2.66657 10.4133V21.5867C2.59889 23.3296 3.08937 25.0486 4.06657 26.4933C4.45599 27.0561 4.94382 27.5439 5.50657 27.9333C6.71982 28.7767 8.14997 29.2534 9.62657 29.3067C9.8799 29.32 10.1466 29.3333 10.4132 29.3333H21.5866C26.4399 29.3333 29.3332 26.44 29.3332 21.5867V10.4133C29.401 8.67043 28.9105 6.95141 27.9332 5.50668ZM15.1866 21.1733H11.3599C11.0947 21.1733 10.8403 21.068 10.6528 20.8805C10.4653 20.6929 10.3599 20.4386 10.3599 20.1733C10.3599 19.9081 10.4653 19.6538 10.6528 19.4662C10.8403 19.2787 11.0947 19.1733 11.3599 19.1733H12.6932V10.5467H9.26657C9.19585 10.5467 9.12802 10.5748 9.07801 10.6248C9.028 10.6748 8.9999 10.7426 8.9999 10.8133V11.8533C8.99814 12.1186 8.89108 12.3722 8.7023 12.5585C8.51351 12.7448 8.25845 12.8484 7.99324 12.8467C7.72802 12.8449 7.47437 12.7379 7.28808 12.5491C7.1018 12.3603 6.99814 12.1052 6.9999 11.84V10.8C6.9999 10.5023 7.05853 10.2076 7.17244 9.9326C7.28635 9.65759 7.45332 9.40772 7.66379 9.19724C8.08888 8.77215 8.66541 8.53335 9.26657 8.53335H18.1199C18.4176 8.53335 18.7123 8.59197 18.9873 8.70588C19.2623 8.8198 19.5122 8.98676 19.7227 9.19724C19.9332 9.40772 20.1001 9.65759 20.214 9.9326C20.3279 10.2076 20.3866 10.5023 20.3866 10.8V11.84C20.3866 12.1052 20.2812 12.3596 20.0937 12.5471C19.9061 12.7347 19.6518 12.84 19.3866 12.84C19.1214 12.84 18.867 12.7347 18.6795 12.5471C18.4919 12.3596 18.3866 12.1052 18.3866 11.84V10.8C18.3866 10.7293 18.3585 10.6615 18.3085 10.6114C18.2585 10.5614 18.1906 10.5333 18.1199 10.5333H14.6932V19.1733H15.1866C15.4518 19.1733 15.7061 19.2787 15.8937 19.4662C16.0812 19.6538 16.1866 19.9081 16.1866 20.1733C16.1866 20.4386 16.0812 20.6929 15.8937 20.8805C15.7061 21.068 15.4518 21.1733 15.1866 21.1733ZM24.9999 16.3067C24.9999 16.5719 24.8945 16.8262 24.707 17.0138C24.5195 17.2013 24.2651 17.3067 23.9999 17.3067C23.7347 17.3067 23.4803 17.2013 23.2928 17.0138C23.1053 16.8262 22.9999 16.5719 22.9999 16.3067V15.8667H20.9332V21.4667H21.3999C21.6651 21.4667 21.9195 21.572 22.107 21.7596C22.2945 21.9471 22.3999 22.2015 22.3999 22.4667C22.3999 22.7319 22.2945 22.9862 22.107 23.1738C21.9195 23.3613 21.6651 23.4667 21.3999 23.4667H18.4666C18.2014 23.4667 17.947 23.3613 17.7595 23.1738C17.5719 22.9862 17.4666 22.7319 17.4666 22.4667C17.4666 22.2015 17.5719 21.9471 17.7595 21.7596C17.947 21.572 18.2014 21.4667 18.4666 21.4667H18.9332V15.8667H18.2932C18.028 15.8667 17.7737 15.7613 17.5861 15.5738C17.3986 15.3862 17.2932 15.1319 17.2932 14.8667C17.2932 14.6015 17.3986 14.3471 17.5861 14.1596C17.7737 13.972 18.028 13.8667 18.2932 13.8667H23.0932C23.5989 13.8667 24.0839 14.0676 24.4415 14.4251C24.799 14.7827 24.9999 15.2677 24.9999 15.7733V16.3067Z" fill="#AFAFAF"/>
</svg>
