<svg width="26" height="25" viewBox="0 0 26 25" fill="none" xmlns="http://www.w3.org/2000/svg">
<path d="M25.1375 12.0779L25.15 12.0971V11.5925C25.15 5.73168 19.7303 0.98916 13.0533 0.98916C6.27057 0.98916 0.85 5.73088 0.85 11.5925C0.85 15.0381 2.77351 18.2615 5.96997 20.2103V23.4324C5.96997 23.8288 6.23568 24.0846 6.47952 24.2066L6.5112 24.2224H6.54661H6.75995C6.76808 24.2224 6.77616 24.2224 6.78419 24.2224C6.96994 24.2227 7.13244 24.2229 7.28022 24.0838L8.76106 23.1319L8.77461 23.1232L8.78601 23.1118L8.8806 23.0172L10.5276 21.9878C11.3621 22.0921 12.2069 22.1957 13.0533 22.1957C19.5449 22.1957 24.848 17.7129 25.1375 12.0779ZM7.85234 21.8127L7.55002 21.9941V19.8057C7.55002 19.5449 7.4193 19.276 7.15032 19.1399C4.20592 17.4557 2.42999 14.623 2.42999 11.5925C2.42999 6.68298 7.14014 2.56917 13.0533 2.56917C18.8588 2.56917 23.57 6.68212 23.57 11.5925C23.57 16.5028 18.8588 20.6158 13.0533 20.6158C12.2186 20.6158 11.3824 20.5124 10.5355 20.4065C10.3995 20.3462 10.268 20.3493 10.1654 20.3639C10.1186 20.3706 10.0746 20.3803 10.0403 20.3878C10.0355 20.3889 10.0309 20.3899 10.0265 20.3908C9.98472 20.3999 9.96762 20.4024 9.95999 20.4024H9.91358L9.87528 20.4286L7.85234 21.8127ZM7.72003 13.8758C8.66374 13.8758 9.25669 13.1609 9.25669 12.3391C9.25669 11.5174 8.66377 10.8025 7.72003 10.8025C6.89051 10.8025 6.18338 11.5096 6.18338 12.3391C6.18338 13.1686 6.89054 13.8758 7.72003 13.8758ZM13.2667 13.5558C14.0962 13.5558 14.8033 12.8487 14.8033 12.0192C14.8033 11.0755 14.0884 10.4825 13.2667 10.4825C12.4449 10.4825 11.73 11.0755 11.73 12.0192C11.73 12.8487 12.4371 13.5558 13.2667 13.5558ZM18.6 13.5558C19.5437 13.5558 20.1367 12.8409 20.1367 12.0192C20.1367 11.5609 19.9929 11.1732 19.7194 10.8998C19.446 10.6264 19.0584 10.4825 18.6 10.4825C17.7783 10.4825 17.0634 11.0755 17.0634 12.0192C17.0634 12.8487 17.7706 13.5558 18.6 13.5558Z" fill="#F29263" stroke="#F29263" stroke-width="0.3"/>
</svg>
