<svg width="23" height="20" viewBox="0 0 23 20" fill="none" xmlns="http://www.w3.org/2000/svg">
<path d="M6.34992 7.75743C5.56976 7.75743 4.93947 8.38772 4.93947 9.16787C4.93947 9.94803 5.56976 10.5783 6.34992 10.5783C7.13007 10.5783 7.76036 9.94803 7.76036 9.16787C7.76036 8.38772 7.13007 7.75743 6.34992 7.75743ZM11.2865 7.75743C10.5063 7.75743 9.87602 8.38772 9.87602 9.16787C9.87602 9.94803 10.5063 10.5783 11.2865 10.5783C12.0666 10.5783 12.6969 9.94803 12.6969 9.16787C12.6969 8.38772 12.0666 7.75743 11.2865 7.75743ZM16.223 7.75743C15.4429 7.75743 14.8126 8.38772 14.8126 9.16787C14.8126 9.94803 15.4429 10.5783 16.223 10.5783C17.0032 10.5783 17.6335 9.94803 17.6335 9.16787C17.6335 8.38772 17.0032 7.75743 16.223 7.75743ZM11.2865 0C5.05407 0 0.00292527 4.10351 0.00292527 9.16787C0.00292527 11.2659 0.880044 13.1876 2.33456 14.7347C1.67783 16.4713 0.31146 17.9435 0.289421 17.9611C-0.00148237 18.2696 -0.0808197 18.7192 0.0866703 19.1071C0.25416 19.495 0.637624 19.7462 1.06076 19.7462C3.77145 19.7462 5.90915 18.6134 7.19177 17.7055C8.46558 18.1066 9.84076 18.3357 11.2865 18.3357C17.5189 18.3357 22.57 14.2322 22.57 9.16787C22.57 4.10351 17.5189 0 11.2865 0ZM11.2865 16.2201C10.1096 16.2201 8.94601 16.0394 7.83088 15.6868L6.83035 15.3694L5.97086 15.9777C5.34057 16.4228 4.47667 16.9209 3.43647 17.2559C3.75823 16.7226 4.07117 16.1231 4.31359 15.484L4.7808 14.2455L3.87283 13.2846C3.07504 12.4339 2.11859 11.0279 2.11859 9.16787C2.11859 5.28034 6.23091 2.11566 11.2865 2.11566C16.342 2.11566 20.4543 5.28034 20.4543 9.16787C20.4543 13.0554 16.342 16.2201 11.2865 16.2201Z" fill="#ADADAD"/>
</svg>
