<svg width="26" height="21" viewBox="0 0 26 21" fill="none" xmlns="http://www.w3.org/2000/svg">
<path d="M15.0208 0H10.0343C9.52428 0 9.11084 0.393524 9.11084 0.878949V19.6211C9.11084 20.1065 9.52428 20.5 10.0343 20.5H15.0208C15.5307 20.5 15.9442 20.1065 15.9442 19.6211V0.878949C15.9442 0.393467 15.5307 0 15.0208 0Z" fill="white"/>
<path d="M24.1321 11.3889H19.1456C18.6356 11.3889 18.2222 11.7633 18.2222 12.2251V19.6639C18.2222 20.1257 18.6356 20.5 19.1456 20.5H24.1321C24.6421 20.5 25.0555 20.1257 25.0555 19.6639V12.2251C25.0555 11.7632 24.6421 11.3889 24.1321 11.3889Z" fill="white"/>
<path d="M5.90991 6.83325H0.923423C0.413436 6.83325 0 7.23187 0 7.72359V19.6096C0 20.1013 0.413436 20.4999 0.923423 20.4999H5.90991C6.4199 20.4999 6.83333 20.1013 6.83333 19.6096V7.72359C6.83333 7.23187 6.4199 6.83325 5.90991 6.83325Z" fill="white"/>
</svg>
