<svg width="20" height="23" viewBox="0 0 20 23" fill="none" xmlns="http://www.w3.org/2000/svg">
<path d="M10.7889 0.328663L19.3556 9.08416C19.7698 9.5137 20.0009 10.0874 20 10.6842V19.9952C20.0009 20.564 19.7836 21.1115 19.3929 21.5249C19.0023 21.9383 18.4679 22.1861 17.9 22.2174H14.4445V17.773C14.4445 16.1063 12.7778 14.4397 10.0001 14.4397C7.22231 14.4397 5.55565 16.1063 5.55565 17.773V22.2174H2.10011C1.53219 22.1861 0.997873 21.9383 0.607207 21.5249C0.216541 21.1115 -0.000732728 20.564 0.000128182 19.9952V10.6842C-0.00303307 10.3898 0.0523072 10.0978 0.162936 9.82505C0.273565 9.5523 0.437278 9.30424 0.644568 9.09527L9.21118 0.328663C9.31447 0.224521 9.43736 0.141861 9.57276 0.0854516C9.70816 0.0290423 9.85338 0 10.0001 0C10.1467 0 10.292 0.0290423 10.4274 0.0854516C10.5628 0.141861 10.6857 0.224521 10.7889 0.328663Z" fill="white"/>
</svg>
